<svg width="512" height="512" viewBox="0 0 512 512" fill="none" xmlns="http://www.w3.org/2000/svg">
<rect width="512" height="512" fill="black"/>
<path d="M354 333C354 347.359 342.359 359 328 359H183C168.641 359 157 347.359 157 333V210H354V333ZM328 162C342.359 162 354 173.641 354 188V204H157V188C157 173.641 168.641 162 183 162H328Z" fill="url(#paint0_linear_2_34)"/>
<rect x="180" y="230" width="23" height="23" rx="3" fill="#FF8000"/>
<rect x="223" y="230" width="23" height="23" rx="3" fill="black"/>
<rect x="309" y="230" width="23" height="23" rx="3" fill="black"/>
<rect x="266" y="230" width="23" height="23" rx="3" fill="black"/>
<rect x="180" y="314" width="23" height="23" rx="3" fill="black"/>
<rect x="223" y="314" width="23" height="23" rx="3" fill="black"/>
<rect x="309" y="314" width="23" height="23" rx="3" fill="#CF0000"/>
<rect x="266" y="314" width="23" height="23" rx="3" fill="black"/>
<rect x="180" y="272" width="23" height="23" rx="3" fill="black"/>
<rect x="223" y="272" width="23" height="23" rx="3" fill="#00BA1C"/>
<rect x="309" y="272" width="23" height="23" rx="3" fill="black"/>
<rect x="266" y="272" width="23" height="23" rx="3" fill="black"/>
<rect x="202" y="152" width="12" height="20" rx="6" fill="url(#paint1_linear_2_34)" stroke="black" stroke-width="2"/>
<rect x="298" y="152" width="12" height="20" rx="6" fill="url(#paint2_linear_2_34)" stroke="black" stroke-width="2"/>
<defs>
<linearGradient id="paint0_linear_2_34" x1="235" y1="298.5" x2="320.5" y2="181.5" gradientUnits="userSpaceOnUse">
<stop stop-color="white"/>
<stop offset="1" stop-color="#999999"/>
</linearGradient>
<linearGradient id="paint1_linear_2_34" x1="208" y1="169" x2="211.567" y2="143.009" gradientUnits="userSpaceOnUse">
<stop stop-color="#D9D9D9"/>
<stop offset="1" stop-color="#737373"/>
</linearGradient>
<linearGradient id="paint2_linear_2_34" x1="292.571" y1="168" x2="318.128" y2="156.766" gradientUnits="userSpaceOnUse">
<stop stop-color="#D9D9D9"/>
<stop offset="1" stop-color="#737373"/>
</linearGradient>
</defs>
</svg>



